<?xml version="1.0" encoding="UTF-8"?>
<svg id="Layer_2" data-name="Layer 2" xmlns="http://www.w3.org/2000/svg" viewBox="0 0 378.81 368.35">
  <g id="Layer_1-2" data-name="Layer 1">
    <g>
      <path d="M0,13.54C3.04,6.07,7.15,1.81,15.47.91,27.15-.35,51.56-.22,63.4.79c7.18.62,12.28,3.5,15.37,10.11,6.28,13.45,9.25,36.09,16.32,48.08,2.19,3.7,5.37,5.62,9.61,6.12l260.17.08c7.95.99,13.23,7.61,13.94,15.35-13.72,46.1-29.38,91.91-45.63,137.17-2.75,4.24-7.58,6.51-12.53,6.96l-173.22.03c-3.02.41-6.27,2.25-7.83,4.91-1.77,3.03-5.18,17.44-4.45,20.69.94,4.18,5.26,6.28,9.23,6.51l195.56.19c17.01,4.64,15.48,29.14-2.04,31.29l-199.44-.12c-17.37-2.59-31.51-16.2-34.76-33.42-3.32-17.57,8.18-32.88,5.6-50.5L54.3,39.07c-1.52-3.11-4.75-5.51-8.24-6C30.56,30.88,5.99,40.16,0,20.28v-6.74Z"/>
      <path d="M132.75,368.35h-9.75c-40.6-8.72-33.01-67.87,9.37-63.62,29.98,3.01,38.02,45.66,10.64,60.01l-10.26,3.61Z"/>
      <path d="M324.75,368.35h-9.75c-40.61-8.73-33.01-67.87,9.37-63.62,29.98,3.01,38.03,45.66,10.64,60.01l-10.26,3.61Z"/>
    </g>
  </g>
</svg>