<?xml version="1.0" encoding="UTF-8"?>
<svg id="Layer_2" data-name="Layer 2" xmlns="http://www.w3.org/2000/svg" viewBox="0 0 389.18 408.83">
  <g id="Layer_1-2" data-name="Layer 1">
    <g>
      <path d="M43.81,408.59c-18.31-1.99-35.92-16.58-41.29-34.14-12.61-41.21,27.22-76.51,66.73-60.9l22.49-31.04,19.2,14.02-22.31,31.25c-.26,1.81,4.73,8.12,5.87,10.6,13.57,29.48-5.94,66.66-38.71,70.21-2.97.32-9.01.32-11.98,0Z"/>
      <path d="M156.23,130.34c61.83-5.47,104.91,60.72,75.63,115.48-23,43.01-81.33,54.62-118.96,23.1-53.78-45.04-26.3-132.43,43.33-138.58Z"/>
      <path d="M244.26,272.1c-1.11-1.59,4.42-7.63,5.42-9.28,2.24-3.7,4.14-7.7,6.2-11.49l18.97,10.31c24.96-25.96,64.82-29.11,92.34-5.07,33.35,29.13,27.93,84.11-10.65,105.88-53.79,30.35-114.78-22.24-94.13-79.56l-18.15-10.78Z"/>
      <path d="M282.38.26c37.85-3.77,65.67,33.42,51.08,68.6-8.84,21.31-32.45,33.4-55.08,29.1-2.71-.52-9.2-3.4-10.97-2.61l-33.05,40.27-18.06-14.7,32.39-41.05c-22.95-30.15-4.35-75.82,33.7-79.61Z"/>
      <path d="M78.93,150.85l-16.47-14.24c-36.84,21.96-79.17-19.83-55.71-56.71,14.5-22.8,47.4-25,64.99-4.43,10.48,12.25,12.19,28.05,6.57,42.96l15.79,14.47c-5.57,5.51-11.36,11-15.17,17.95Z"/>
    </g>
  </g>
</svg>